<svg width="455" height="165" viewBox="0 0 455 165" fill="none" xmlns="http://www.w3.org/2000/svg">
<ellipse cx="234.226" cy="82.3475" rx="215.77" ry="43.7632" transform="rotate(-10.3742 234.226 82.3475)" fill="url(#paint0_radial_3_8)"/>
<path d="M81.9 138.2C81.3 138.2 81.1667 137.733 81.5 136.8C81.9 135.933 82.2667 135.133 82.6 134.4C83.2 133.2 83.5 131.333 83.5 128.8C83.5 126.6 83.1 124.233 82.3 121.7C81.5 119.167 79.9333 116.867 77.6 114.8C74.4 111.867 70.8 109.533 66.8 107.8C62.8 106.067 58.6 104.667 54.2 103.6C49.8667 102.533 45.5667 101.6 41.3 100.8C38.7 104.4 35.9 107.633 32.9 110.5C29.9667 113.367 26.8333 115.567 23.5 117.1C21.6333 117.967 19.8333 118.6 18.1 119C16.3667 119.467 14.7333 119.7 13.2 119.7C9.46667 119.7 6.4 118.7 4 116.7C1.66667 114.767 0.5 112.467 0.5 109.8C0.5 107.267 1.63333 104.8 3.9 102.4C6.23333 99.9334 10.0667 97.9001 15.4 96.3001C17.5333 95.7001 19.9 95.2667 22.5 95.0001C25.1 94.6667 27.8 94.5001 30.6 94.5001C32.3333 94.5001 34.0333 94.5667 35.7 94.7001C37.4333 94.7667 39.0333 94.9667 40.5 95.3001C42.4333 92.3667 44.2333 89.3334 45.9 86.2001C47.5667 83.0001 49.3 79.5334 51.1 75.8001C45.8333 75.9334 41.2667 75.1667 37.4 73.5001C33.5333 71.7667 30.5333 69.4667 28.4 66.6001C26.3333 63.7334 25.3 60.6667 25.3 57.4001C25.3 54.7334 26.0667 52.1334 27.6 49.6001C29.1333 47.0001 31.5333 44.6667 34.8 42.6001C38.1333 40.4667 42.3667 38.8001 47.5 37.6001C47.8333 37.4667 48.1333 37.4001 48.4 37.4001C48.7333 37.4001 49.0333 37.4001 49.3 37.4001C50.3 37.4001 50.8 37.6001 50.8 38.0001C50.8 38.6667 49.7333 39.1334 47.6 39.4001C44.1333 39.8001 41.0667 41.0334 38.4 43.1001C35.8 45.1667 33.7667 47.6334 32.3 50.5001C30.9 53.3667 30.2 56.2667 30.2 59.2001C30.2 61.7334 30.8 64.1001 32 66.3001C33.2 68.5001 35.1 70.3001 37.7 71.7001C40.3 73.0334 43.6667 73.7001 47.8 73.7001C49.2667 73.7001 50.8333 73.6001 52.5 73.4001C52.7667 72.8667 53.2 71.8001 53.8 70.2001C54.4667 68.5334 55.2 66.6667 56 64.6001C56.8 62.5334 57.5667 60.5334 58.3 58.6001C59.1 56.6667 59.7333 55.0667 60.2 53.8001C60.7333 52.4667 61 51.8001 61 51.8001C64.0667 44.1334 67.2 38.1334 70.4 33.8001C73.6667 29.4001 76.8 26.3001 79.8 24.5001C82.8667 22.7001 85.6 21.8001 88 21.8001C90.6 21.8001 92.7333 22.5667 94.4 24.1001C96.1333 25.6334 97.0667 27.3667 97.2 29.3001C97.2667 29.9001 97.3 30.3334 97.3 30.6001C97.3 30.8667 97.3 31.2001 97.3 31.6001C97.3 35.5334 96.5 39.4667 94.9 43.4001C93.3667 47.3334 91.2 51.0667 88.4 54.6001C85.6667 58.1334 82.5 61.3334 78.9 64.2001C75.3667 67.0667 71.5667 69.4667 67.5 71.4001C63.5 73.3334 59.4333 74.6667 55.3 75.4001C54.3 77.4001 53.4 79.2001 52.6 80.8001C51.8667 82.3334 51.0333 84.0001 50.1 85.8001C49.1667 87.6001 47.9333 89.9001 46.4 92.7001C45.9333 93.5667 45.5667 94.2001 45.3 94.6001C45.1 94.9334 44.7667 95.4667 44.3 96.2001C47.6333 97.0001 51.2667 98.1334 55.2 99.6001C59.1333 101 63 102.7 66.8 104.7C70.6667 106.633 74.1 108.767 77.1 111.1C80.8333 113.967 83.4667 117.2 85 120.8C86.6 124.4 87.4 127.567 87.4 130.3C87.4 132.233 87.1 133.7 86.5 134.7C85.6333 136.167 84.7667 137.1 83.9 137.5C83.0333 137.967 82.3667 138.2 81.9 138.2ZM56.7 72.7001C61.2333 71.7001 65.6667 69.9001 70 67.3001C74.3333 64.6334 78.2333 61.4334 81.7 57.7001C85.1667 53.9001 87.9333 49.8001 90 45.4001C92.0667 40.9334 93.1 36.4001 93.1 31.8001C93.1 30.6667 92.8 29.7334 92.2 29.0001C91.6 28.2667 90.7333 27.9001 89.6 27.9001C88.0667 27.9001 86.1 28.7667 83.7 30.5001C81.3 32.1667 78.5667 35.0001 75.5 39.0001C72.4333 42.9334 69.1333 48.3667 65.6 55.3001C65.6 55.3001 65.1333 56.1667 64.2 57.9001C63.3333 59.6334 62.2 61.8334 60.8 64.5001C59.4667 67.1001 58.1 69.8334 56.7 72.7001ZM11.8 116.8C13.2667 116.8 14.8333 116.6 16.5 116.2C18.2333 115.8 20.0333 115.167 21.9 114.3C27.5 111.567 32.6667 106.833 37.4 100.1C35.8667 99.7667 34.2667 99.5334 32.6 99.4001C30.9333 99.2001 29.2333 99.1001 27.5 99.1001C25.7 99.1001 23.8333 99.2001 21.9 99.4001C20.0333 99.6001 18.2 99.9667 16.4 100.5C11.9333 101.7 8.5 103.233 6.1 105.1C3.76667 106.967 2.6 108.867 2.6 110.8C2.6 112.467 3.43333 113.867 5.1 115C6.76667 116.2 9 116.8 11.8 116.8ZM99.782 108.3C99.0487 108.367 98.2154 108.2 97.282 107.8C96.3487 107.4 95.5154 106.667 94.782 105.6C94.1154 104.533 93.782 103.033 93.782 101.1C93.782 99.5001 94.082 97.5667 94.682 95.3001C93.882 96.5667 92.8487 98.1334 91.582 100C90.3154 101.8 88.9487 103.4 87.482 104.8C86.2154 106 85.0154 106.867 83.882 107.4C82.7487 107.933 81.7154 108.2 80.782 108.2C79.0487 108.2 77.6487 107.433 76.582 105.9C75.5154 104.3 74.982 102.233 74.982 99.7001C74.982 97.0334 75.6487 94.0001 76.982 90.6001C78.3154 87.2001 80.482 83.6667 83.482 80.0001C85.4154 77.6667 87.7487 75.8001 90.482 74.4001C93.282 72.9334 96.0154 72.2001 98.682 72.2001C100.215 72.2001 101.682 72.4667 103.082 73.0001C104.482 73.4667 105.715 74.2667 106.782 75.4001C107.249 75.8667 107.482 76.4001 107.482 77.0001C107.482 77.4001 107.315 77.7334 106.982 78.0001C106.649 78.2667 106.215 78.3334 105.682 78.2001C104.949 75.8667 103.382 74.7001 100.982 74.7001C99.8487 74.7001 98.5487 75.0667 97.082 75.8001C94.8154 77.0001 92.4487 78.9667 89.982 81.7001C87.582 84.4334 85.482 87.2667 83.682 90.2001C83.4154 90.6001 82.982 91.3667 82.382 92.5001C81.8487 93.6334 81.3154 94.9001 80.782 96.3001C80.2487 97.7001 79.882 99.0667 79.682 100.4C79.6154 100.8 79.582 101.1 79.582 101.3C79.582 101.433 79.582 101.667 79.582 102C79.582 104.2 80.4154 105.3 82.082 105.3C84.082 105.3 86.3487 103.833 88.882 100.9C90.6154 98.7667 92.182 96.5334 93.582 94.2001C94.982 91.8667 96.4154 89.3667 97.882 86.7001C98.882 84.9001 99.8154 83.4001 100.682 82.2001C101.549 81.0001 102.782 80.4001 104.382 80.4001C105.115 80.4001 105.849 80.5001 106.582 80.7001C107.315 80.9001 108.082 80.9334 108.882 80.8001C108.349 81.3334 107.615 82.3334 106.682 83.8001C105.815 85.2667 104.882 86.9334 103.882 88.8001C102.882 90.6667 101.982 92.5667 101.182 94.5001C100.382 96.4334 99.8154 98.1001 99.482 99.5001C99.4154 99.9001 99.3154 100.467 99.182 101.2C99.1154 101.933 99.082 102.467 99.082 102.8C99.082 104.667 99.6154 105.6 100.682 105.6C101.749 105.6 102.882 104.967 104.082 103.7C105.349 102.433 106.582 100.867 107.782 99.0001C108.982 97.1334 110.082 95.2667 111.082 93.4001C112.082 91.4667 112.882 89.9001 113.482 88.7001C113.749 88.0334 114.149 87.7001 114.682 87.7001C115.015 87.7001 115.182 87.9334 115.182 88.4001C115.182 88.6001 115.082 88.9667 114.882 89.5001C114.082 91.1667 113.115 93.0667 111.982 95.2001C110.849 97.2667 109.615 99.3001 108.282 101.3C106.949 103.233 105.549 104.867 104.082 106.2C102.682 107.467 101.249 108.167 99.782 108.3ZM135.438 108C133.638 108 132.138 107.1 130.938 105.3C130.605 104.767 130.305 104.067 130.038 103.2C129.772 102.333 129.638 101.367 129.638 100.3C129.638 99.7001 129.672 99.1001 129.738 98.5001C129.805 97.8334 129.938 97.1667 130.138 96.5001C129.205 97.9667 128.105 99.6001 126.838 101.4C125.638 103.133 124.238 104.667 122.638 106C121.105 107.267 119.372 107.9 117.438 107.9C116.772 107.9 116.072 107.8 115.338 107.6C113.538 107.067 112.238 106.133 111.438 104.8C110.705 103.467 110.338 101.867 110.338 100C110.338 97.9334 110.738 95.6667 111.538 93.2001C112.405 90.7334 113.472 88.3334 114.738 86.0001C116.072 83.6667 117.438 81.6667 118.838 80.0001C120.838 77.6667 123.138 75.8001 125.738 74.4001C128.338 73.0001 130.972 72.3001 133.638 72.3001C136.038 72.3001 138.305 72.9334 140.438 74.2001C141.438 72.3334 142.505 70.2667 143.638 68.0001C144.772 65.6667 145.905 63.3667 147.038 61.1001C148.172 58.8334 149.172 56.7667 150.038 54.9001C150.905 52.9667 151.572 51.5001 152.038 50.5001C153.038 48.1667 153.972 46.7001 154.838 46.1001C155.772 45.4334 156.872 45.1001 158.138 45.1001C158.872 45.1001 159.672 45.2001 160.538 45.4001C161.472 45.5334 162.372 45.5667 163.238 45.5001C162.838 45.9001 162.005 47.0667 160.738 49.0001C159.538 50.8667 158.105 53.2667 156.438 56.2001C154.772 59.1334 152.972 62.3667 151.038 65.9001C149.172 69.3667 147.305 72.9001 145.438 76.5001C143.638 80.0334 141.938 83.4001 140.338 86.6001C138.805 89.7334 137.572 92.4334 136.638 94.7001C136.372 95.2334 135.972 96.3334 135.438 98.0001C134.972 99.6001 134.738 101 134.738 102.2C134.738 103.067 134.938 103.833 135.338 104.5C135.738 105.1 136.405 105.4 137.338 105.4C138.605 105.4 139.872 104.767 141.138 103.5C142.472 102.167 143.738 100.567 144.938 98.7001C146.138 96.7667 147.205 94.9001 148.138 93.1001C149.072 91.2334 149.772 89.7667 150.238 88.7001C150.572 87.9667 150.972 87.6001 151.438 87.6001C151.838 87.6001 152.038 87.9001 152.038 88.5001C152.038 88.5667 152.038 88.7001 152.038 88.9001C152.038 89.0334 151.972 89.2001 151.838 89.4001C151.238 90.8001 150.405 92.5334 149.338 94.6001C148.338 96.6667 147.138 98.7334 145.738 100.8C144.338 102.867 142.772 104.6 141.038 106C139.305 107.333 137.438 108 135.438 108ZM118.138 105C119.072 105 120.238 104.5 121.638 103.5C123.038 102.433 124.538 100.767 126.138 98.5001C128.005 95.8334 130.138 92.5001 132.538 88.5001C134.938 84.5001 137.305 80.2667 139.638 75.8001C138.772 75.0001 137.772 74.6001 136.638 74.6001C134.772 74.6001 132.672 75.4667 130.338 77.2001C128.072 78.9334 125.838 81.1334 123.638 83.8001C121.505 86.4667 119.705 89.1667 118.238 91.9001C117.238 93.7667 116.505 95.4667 116.038 97.0001C115.638 98.5334 115.438 99.8667 115.438 101C115.438 103.667 116.338 105 118.138 105ZM136.752 139.9C133.286 139.9 130.819 139.2 129.352 137.8C127.886 136.467 127.152 134.867 127.152 133C127.152 132 127.286 131.133 127.552 130.4C127.819 129.667 128.219 128.733 128.752 127.6C129.686 125.667 130.986 124 132.652 122.6C134.319 121.2 136.119 120.067 138.052 119.2C141.519 117.6 145.452 116.3 149.852 115.3C154.319 114.3 158.586 113.2 162.652 112C163.919 109.8 165.086 107.3 166.152 104.5C167.219 101.633 168.186 98.8667 169.052 96.2001C169.919 93.4667 170.619 91.2334 171.152 89.5001C170.352 90.9667 169.319 92.7667 168.052 94.9001C166.852 96.9667 165.486 99.0001 163.952 101C162.419 103 160.752 104.667 158.952 106C157.219 107.333 155.386 108 153.452 108C152.719 108 151.819 107.833 150.752 107.5C149.752 107.167 148.852 106.567 148.052 105.7C147.319 104.767 146.952 103.4 146.952 101.6C146.952 99.8667 147.352 98.2001 148.152 96.6001C149.019 94.9334 149.819 93.3334 150.552 91.8001C150.352 91.8001 150.119 91.7334 149.852 91.6001C149.652 91.4667 149.552 91.2667 149.552 91.0001C149.552 90.7334 149.619 90.4667 149.752 90.2001C150.019 89.6667 150.319 89.1001 150.652 88.5001C150.986 87.9001 151.286 87.2667 151.552 86.6001C152.552 84.5334 153.552 82.5667 154.552 80.7001C155.552 78.7667 156.419 77.0667 157.152 75.6001C157.886 74.1334 159.152 73.4001 160.952 73.4001H167.152C166.686 73.8001 166.086 74.2667 165.352 74.8001C164.686 75.2667 164.052 76.0001 163.452 77.0001C161.652 80.0667 160.086 83.0334 158.752 85.9001C157.419 88.7001 155.986 91.7001 154.452 94.9001C153.719 96.4334 153.186 97.8334 152.852 99.1001C152.519 100.367 152.352 101.467 152.352 102.4C152.352 104.6 153.086 105.7 154.552 105.7C156.152 105.7 158.086 104.4 160.352 101.8C162.219 99.6001 164.086 97.0001 165.952 94.0001C167.886 90.9334 169.719 87.8001 171.452 84.6001C173.252 81.3334 174.819 78.3334 176.152 75.6001C176.886 74.1334 178.186 73.4001 180.052 73.4001H185.552C183.619 74.7334 182.119 76.4667 181.052 78.6001C180.052 80.7334 178.919 83.4667 177.652 86.8001C176.252 90.4667 174.919 94.2667 173.652 98.2001C172.452 102.067 171.086 105.967 169.552 109.9C171.752 109.167 174.219 108.033 176.952 106.5C179.752 104.967 182.119 102.767 184.052 99.9001C185.586 97.6334 186.886 95.4667 187.952 93.4001C189.086 91.2667 189.886 89.7334 190.352 88.8001C190.619 88.1334 190.986 87.8001 191.452 87.8001C191.919 87.8001 192.152 88.1001 192.152 88.7001C192.152 89.0334 192.052 89.4001 191.852 89.8001C190.119 93.2667 188.552 96.2001 187.152 98.6001C185.819 100.933 184.319 102.967 182.652 104.7C181.052 106.367 179.086 107.833 176.752 109.1C174.419 110.433 171.452 111.767 167.852 113.1C166.252 115.967 164.419 118.933 162.352 122C160.352 125.133 158.052 128.033 155.452 130.7C152.919 133.433 150.086 135.633 146.952 137.3C143.886 139.033 140.486 139.9 136.752 139.9ZM134.352 137.9C136.552 137.9 138.819 137.233 141.152 135.9C143.486 134.567 145.752 132.867 147.952 130.8C150.152 128.8 152.152 126.733 153.952 124.6C155.819 122.533 157.319 120.7 158.452 119.1C158.786 118.633 159.152 118.033 159.552 117.3C159.952 116.567 160.352 115.867 160.752 115.2C157.486 116.067 153.886 117 149.952 118C146.086 119.067 142.719 120.233 139.852 121.5C136.652 122.833 134.152 124.733 132.352 127.2C130.486 129.667 129.552 131.867 129.552 133.8C129.552 135 129.952 135.967 130.752 136.7C131.486 137.5 132.686 137.9 134.352 137.9ZM228.566 111.9C227.099 111.9 225.599 111.8 224.066 111.6C219.866 111.067 216.766 109.833 214.766 107.9C212.832 105.967 211.866 103.867 211.866 101.6C211.866 99.1334 212.966 96.9001 215.166 94.9001C217.366 92.8334 220.466 91.8001 224.466 91.8001C227.132 91.8001 230.032 92.3334 233.166 93.4001C234.899 94.0001 236.966 95.0001 239.366 96.4001C241.766 97.8001 244.532 99.2667 247.666 100.8C250.999 97.6001 254.032 93.6334 256.766 88.9001C259.566 84.1667 262.332 79.1001 265.066 73.7001C267.866 68.2334 270.866 62.7667 274.066 57.3001C277.332 51.8334 281.099 46.7001 285.366 41.9001L291.166 35.4001C288.699 35.0001 286.132 34.7001 283.466 34.5001C280.799 34.2334 278.032 34.1001 275.166 34.1001C271.566 34.1001 267.866 34.3001 264.066 34.7001C260.266 35.0334 256.466 35.6001 252.666 36.4001C246.399 37.7334 241.099 39.8667 236.766 42.8001C232.432 45.7334 229.132 48.9334 226.866 52.4001C224.666 55.8001 223.566 59.0001 223.566 62.0001C223.566 64.0667 224.132 65.9334 225.266 67.6001C226.466 69.2001 228.232 70.3667 230.566 71.1001C232.032 71.5667 233.532 71.8001 235.066 71.8001C237.332 71.8001 239.332 71.3334 241.066 70.4001C242.799 69.4667 244.266 68.3334 245.466 67.0001C246.666 65.6001 247.532 64.2667 248.066 63.0001C248.666 61.7334 248.932 60.8001 248.866 60.2001C248.866 59.7334 249.199 59.5001 249.866 59.5001C250.532 59.5001 250.866 60.0001 250.866 61.0001V61.1001C250.866 63.8334 250.032 66.2001 248.366 68.2001C246.699 70.2001 244.599 71.7334 242.066 72.8001C239.599 73.8667 237.099 74.4001 234.566 74.4001C232.966 74.4001 231.299 74.1334 229.566 73.6001C225.966 72.3334 223.299 70.5001 221.566 68.1001C219.832 65.6334 218.966 62.9334 218.966 60.0001C218.966 57.2667 219.699 54.4667 221.166 51.6001C222.699 48.6667 224.932 45.9001 227.866 43.3001C230.799 40.6334 234.432 38.3334 238.766 36.4001C243.166 34.4667 248.232 33.1001 253.966 32.3001C257.032 31.8334 260.066 31.5001 263.066 31.3001C266.066 31.1001 268.966 31.0001 271.766 31.0001C275.632 31.0001 279.399 31.2001 283.066 31.6001C286.799 31.9334 290.299 32.4667 293.566 33.2001C294.499 32.4001 295.432 31.7001 296.366 31.1001C297.366 30.5001 298.266 30.0334 299.066 29.7001C299.532 29.5001 299.932 29.3667 300.266 29.3001C300.599 29.2334 300.866 29.2001 301.066 29.2001C301.466 29.2001 301.666 29.3334 301.666 29.6001C301.666 29.9334 301.166 30.4667 300.166 31.2001C299.499 31.6667 298.866 32.2001 298.266 32.8001C297.666 33.3334 297.299 33.7334 297.166 34.0001C303.966 35.7334 309.466 38.1334 313.666 41.2001C317.932 44.2001 320.066 47.7667 320.066 51.9001C320.066 54.0334 319.366 56.3667 317.966 58.9001C316.499 61.3667 314.466 63.3667 311.866 64.9001C309.266 66.3667 306.499 67.4667 303.566 68.2001C300.632 68.8667 297.899 69.2667 295.366 69.4001C297.566 70.0667 299.966 71.0667 302.566 72.4001C305.232 73.6667 307.666 75.2334 309.866 77.1001C312.132 78.9667 313.632 81.1667 314.366 83.7001C314.832 85.3001 315.066 86.9334 315.066 88.6001C315.066 92.1334 314.032 95.3334 311.966 98.2001C309.966 101.067 307.266 103.533 303.866 105.6C300.532 107.6 296.866 109.133 292.866 110.2C288.866 111.333 284.899 111.9 280.966 111.9C279.499 111.9 277.999 111.8 276.466 111.6C270.066 110.8 264.766 109.8 260.566 108.6C256.432 107.4 252.799 106.067 249.666 104.6C243.199 109.467 236.166 111.9 228.566 111.9ZM279.566 109C283.699 109 287.466 108.367 290.866 107.1C294.266 105.833 297.199 104.167 299.666 102.1C302.199 100.033 304.132 97.7334 305.466 95.2001C306.866 92.6667 307.566 90.1667 307.566 87.7001C307.566 85.3667 306.866 83.1001 305.466 80.9001C304.066 78.7001 301.866 76.8667 298.866 75.4001C296.266 74.1334 293.566 73.1001 290.766 72.3001C288.032 71.4334 285.666 70.7001 283.666 70.1001C281.666 69.4334 280.499 68.7667 280.166 68.1001C280.166 67.3001 280.499 66.7667 281.166 66.5001C281.899 66.1667 282.832 66.0001 283.966 66.0001C285.299 66.0001 286.899 66.1001 288.766 66.3001C290.632 66.5001 292.599 66.6001 294.666 66.6001C296.799 66.6001 298.966 66.1334 301.166 65.2001C303.432 64.2001 305.499 62.9001 307.366 61.3001C309.232 59.6334 310.732 57.8334 311.866 55.9001C313.066 53.9001 313.666 51.8667 313.666 49.8001C313.666 47.9334 313.032 46.1001 311.766 44.3001C310.499 42.5001 308.399 40.9334 305.466 39.6001C302.532 38.2667 299.366 37.2001 295.966 36.4001C292.632 41.0001 289.299 46.1667 285.966 51.9001C282.632 57.5667 279.299 63.3334 275.966 69.2001C272.632 75.0001 269.266 80.5001 265.866 85.7001C262.466 90.9001 259.066 95.3667 255.666 99.1001C254.866 99.9667 254.232 100.633 253.766 101.1C253.299 101.5 252.666 102.067 251.866 102.8C254.999 104.067 258.566 105.267 262.566 106.4C266.566 107.533 271.132 108.333 276.266 108.8C276.799 108.867 277.332 108.9 277.866 108.9C278.466 108.967 279.032 109 279.566 109ZM226.566 108.8C230.299 109 233.699 108.567 236.766 107.5C239.899 106.367 242.799 104.8 245.466 102.8C243.132 101.667 240.732 100.5 238.266 99.3001C235.866 98.0334 233.299 96.9001 230.566 95.9001C228.632 95.2334 226.866 94.9001 225.266 94.9001C222.799 94.9001 220.932 95.5667 219.666 96.9001C218.399 98.1667 217.766 99.6334 217.766 101.3C217.766 103.033 218.499 104.7 219.966 106.3C221.432 107.833 223.632 108.667 226.566 108.8ZM332.953 108.1C331.686 108.1 330.42 107.6 329.153 106.6C327.886 105.533 327.253 103.833 327.253 101.5C327.253 99.7001 327.686 97.6334 328.553 95.3001C329.353 93.0334 330.42 90.8334 331.753 88.7001C333.153 86.5667 334.153 84.8334 334.753 83.5001C334.953 82.9667 335.053 82.5001 335.053 82.1001C335.053 80.9001 334.286 80.0334 332.753 79.5001C331.286 78.9667 329.353 78.6667 326.953 78.6001L325.753 81.9001C325.02 84.0334 323.986 86.5334 322.653 89.4001C321.386 92.2667 319.953 95.0334 318.353 97.7001C316.82 100.367 315.22 102.5 313.553 104.1C313.42 104.233 313.253 104.3 313.053 104.3C312.786 104.3 312.62 104.133 312.553 103.8C312.42 103.467 312.553 103.067 312.953 102.6C315.553 99.1334 317.886 95.3001 319.953 91.1001C322.02 86.8334 323.753 82.5001 325.153 78.1001C326.62 73.7001 327.686 69.6334 328.353 65.9001C328.553 64.8334 328.92 64.0667 329.453 63.6001C329.986 63.0667 330.553 62.8001 331.153 62.8001C332.02 62.8001 332.82 63.2334 333.553 64.1001C334.286 64.9001 334.653 66.0667 334.653 67.6001C334.653 67.8667 334.62 68.1667 334.553 68.5001C334.553 68.8334 334.52 69.1667 334.453 69.5001C334.186 70.9001 333.386 72.2334 332.053 73.5001C330.786 74.7001 329.753 75.6001 328.953 76.2001C329.62 76.2667 330.32 76.3334 331.053 76.4001C331.786 76.4001 332.586 76.4001 333.453 76.4001C336.586 76.4001 339.686 76.2001 342.753 75.8001C342.886 76.2001 342.953 76.5001 342.953 76.7001C342.953 77.5667 342.686 78.6667 342.153 80.0001C341.686 81.3334 341.186 82.5334 340.653 83.6001C340.386 84.2001 339.853 85.3001 339.053 86.9001C338.253 88.4334 337.386 90.2001 336.453 92.2001C335.52 94.1334 334.72 96.0667 334.053 98.0001C333.453 99.8667 333.153 101.467 333.153 102.8C333.153 104.533 333.82 105.4 335.153 105.4C336.153 105.4 337.253 104.767 338.453 103.5C339.653 102.167 340.82 100.567 341.953 98.7001C343.153 96.7667 344.22 94.9001 345.153 93.1001C346.153 91.2334 346.92 89.7667 347.453 88.7001C347.72 88.0334 348.086 87.7001 348.553 87.7001C348.82 87.7001 348.953 87.9334 348.953 88.4001C348.953 88.6667 348.853 89.0667 348.653 89.6001C347.92 91.1334 347.053 92.8667 346.053 94.8001C345.053 96.7334 343.92 98.6334 342.653 100.5C341.453 102.367 340.12 104 338.653 105.4C337.253 106.733 335.72 107.6 334.053 108C333.853 108.067 333.486 108.1 332.953 108.1ZM368.727 108.3C367.994 108.367 367.161 108.2 366.227 107.8C365.294 107.4 364.461 106.667 363.727 105.6C363.061 104.533 362.727 103.033 362.727 101.1C362.727 99.5001 363.027 97.5667 363.627 95.3001C362.827 96.5667 361.794 98.1334 360.527 100C359.261 101.8 357.894 103.4 356.427 104.8C355.161 106 353.961 106.867 352.827 107.4C351.694 107.933 350.661 108.2 349.727 108.2C347.994 108.2 346.594 107.433 345.527 105.9C344.461 104.3 343.927 102.233 343.927 99.7001C343.927 97.0334 344.594 94.0001 345.927 90.6001C347.261 87.2001 349.427 83.6667 352.427 80.0001C354.361 77.6667 356.694 75.8001 359.427 74.4001C362.227 72.9334 364.961 72.2001 367.627 72.2001C369.161 72.2001 370.627 72.4667 372.027 73.0001C373.427 73.4667 374.661 74.2667 375.727 75.4001C376.194 75.8667 376.427 76.4001 376.427 77.0001C376.427 77.4001 376.261 77.7334 375.927 78.0001C375.594 78.2667 375.161 78.3334 374.627 78.2001C373.894 75.8667 372.327 74.7001 369.927 74.7001C368.794 74.7001 367.494 75.0667 366.027 75.8001C363.761 77.0001 361.394 78.9667 358.927 81.7001C356.527 84.4334 354.427 87.2667 352.627 90.2001C352.361 90.6001 351.927 91.3667 351.327 92.5001C350.794 93.6334 350.261 94.9001 349.727 96.3001C349.194 97.7001 348.827 99.0667 348.627 100.4C348.561 100.8 348.527 101.1 348.527 101.3C348.527 101.433 348.527 101.667 348.527 102C348.527 104.2 349.361 105.3 351.027 105.3C353.027 105.3 355.294 103.833 357.827 100.9C359.561 98.7667 361.127 96.5334 362.527 94.2001C363.927 91.8667 365.361 89.3667 366.827 86.7001C367.827 84.9001 368.761 83.4001 369.627 82.2001C370.494 81.0001 371.727 80.4001 373.327 80.4001C374.061 80.4001 374.794 80.5001 375.527 80.7001C376.261 80.9001 377.027 80.9334 377.827 80.8001C377.294 81.3334 376.561 82.3334 375.627 83.8001C374.761 85.2667 373.827 86.9334 372.827 88.8001C371.827 90.6667 370.927 92.5667 370.127 94.5001C369.327 96.4334 368.761 98.1001 368.427 99.5001C368.361 99.9001 368.261 100.467 368.127 101.2C368.061 101.933 368.027 102.467 368.027 102.8C368.027 104.667 368.561 105.6 369.627 105.6C370.694 105.6 371.827 104.967 373.027 103.7C374.294 102.433 375.527 100.867 376.727 99.0001C377.927 97.1334 379.027 95.2667 380.027 93.4001C381.027 91.4667 381.827 89.9001 382.427 88.7001C382.694 88.0334 383.094 87.7001 383.627 87.7001C383.961 87.7001 384.127 87.9334 384.127 88.4001C384.127 88.6001 384.027 88.9667 383.827 89.5001C383.027 91.1667 382.061 93.0667 380.927 95.2001C379.794 97.2667 378.561 99.3001 377.227 101.3C375.894 103.233 374.494 104.867 373.027 106.2C371.627 107.467 370.194 108.167 368.727 108.3ZM385.884 108.7C383.817 108.7 382.384 108.167 381.584 107.1C380.784 106.033 380.384 104.667 380.384 103C380.384 101.267 380.684 99.3001 381.284 97.1001C381.95 94.9001 382.65 92.7334 383.384 90.6001C382.917 91.2667 382.45 91.6001 381.984 91.6001C381.717 91.6001 381.517 91.4667 381.384 91.2001C381.25 90.9334 381.284 90.6334 381.484 90.3001C381.817 89.7001 382.15 89.1334 382.484 88.6001C382.817 88.0001 383.117 87.4001 383.384 86.8001C383.917 85.6667 384.35 84.3334 384.684 82.8001C385.084 81.2001 385.284 79.7334 385.284 78.4001C385.284 77.3334 385.15 76.4334 384.884 75.7001C384.617 74.9667 384.217 74.5334 383.684 74.4001C383.684 74.4001 384.017 74.3334 384.684 74.2001C385.417 74.0667 386.184 73.9334 386.984 73.8001C387.784 73.6667 388.317 73.6001 388.584 73.6001C388.984 73.5334 389.35 73.5001 389.684 73.5001C390.017 73.4334 390.317 73.4001 390.584 73.4001C391.25 73.4001 391.684 73.6667 391.884 74.2001C392.15 74.7334 392.25 75.9001 392.184 77.7001C392.117 79.3667 391.784 81.4001 391.184 83.8001C390.584 86.1334 389.95 88.1667 389.284 89.9001C388.417 92.1667 387.617 94.4667 386.884 96.8001C386.15 99.1334 385.784 101.067 385.784 102.6C385.784 103.933 386.15 104.8 386.884 105.2C387.417 105.4 387.884 105.5 388.284 105.5C389.817 105.5 391.317 104.733 392.784 103.2C394.317 101.667 395.784 99.6334 397.184 97.1001C398.584 94.5001 399.884 91.7334 401.084 88.8001C400.617 87.8667 400.284 86.8334 400.084 85.7001C399.884 84.5667 399.784 83.4667 399.784 82.4001C399.784 81.1334 399.95 79.9334 400.284 78.8001C401.084 76.1334 402.184 74.2334 403.584 73.1001C405.05 71.9001 406.284 71.3001 407.284 71.3001C408.55 71.3001 409.184 71.8667 409.184 73.0001C409.184 73.2667 409.084 73.6667 408.884 74.2001C408.75 74.3334 408.684 74.5334 408.684 74.8001C408.217 76.2001 407.517 78.2334 406.584 80.9001C405.717 83.5667 404.617 86.5001 403.284 89.7001C402.017 92.8334 400.484 95.8667 398.684 98.8001C396.95 101.667 395.017 104.033 392.884 105.9C390.75 107.767 388.417 108.7 385.884 108.7ZM413.451 108C410.917 108 409.051 107.167 407.851 105.5C406.651 103.767 406.051 101.667 406.051 99.2001C406.051 96.2001 406.751 93.0667 408.151 89.8001C409.484 86.7334 411.184 83.9334 413.251 81.4001C415.317 78.8667 417.551 76.8334 419.951 75.3001C422.351 73.7001 424.684 72.9001 426.951 72.9001C429.484 72.9001 431.351 73.7334 432.551 75.4001C433.751 77.0667 434.351 79.1667 434.351 81.7001C434.351 84.7667 433.651 87.9001 432.251 91.1001C431.451 92.9001 430.317 94.9001 428.851 97.1001C427.384 99.2334 425.717 101.2 423.851 103C424.251 103.733 424.817 104.367 425.551 104.9C426.284 105.367 427.284 105.6 428.551 105.6C430.151 105.6 431.651 104.933 433.051 103.6C434.517 102.267 435.851 100.667 437.051 98.8001C438.251 96.8667 439.317 94.9334 440.251 93.0001C441.184 91.0667 441.951 89.5001 442.551 88.3001C442.751 87.9001 443.084 87.7001 443.551 87.7001C443.817 87.7001 444.017 87.8334 444.151 88.1001C444.284 88.3001 444.251 88.6334 444.051 89.1001C443.651 90.1001 442.984 91.6001 442.051 93.6001C441.117 95.5334 439.984 97.5667 438.651 99.7001C437.317 101.767 435.784 103.533 434.051 105C432.317 106.467 430.384 107.2 428.251 107.2C426.784 107.2 425.517 106.967 424.451 106.5C423.384 105.967 422.517 105.333 421.851 104.6C420.451 105.667 419.051 106.5 417.651 107.1C416.251 107.7 414.851 108 413.451 108ZM414.951 105.8C416.751 105.8 418.684 104.933 420.751 103.2C420.217 102.4 419.817 101.567 419.551 100.7C419.284 99.8334 419.151 99.0334 419.151 98.3001C419.151 97.1001 419.417 96.0667 419.951 95.2001C420.551 94.3334 421.451 93.9001 422.651 93.9001C423.517 93.9001 424.217 94.2334 424.751 94.9001C425.351 95.5001 425.651 96.2001 425.651 97.0001C425.651 97.2001 425.617 97.4001 425.551 97.6001C425.551 97.7334 425.517 97.9001 425.451 98.1001C426.584 96.5667 427.651 94.7667 428.651 92.7001C430.851 87.9667 431.951 84.0667 431.951 81.0001C431.951 79.4667 431.651 78.2667 431.051 77.4001C430.451 76.5334 429.551 76.1001 428.351 76.1001C426.951 76.1001 425.417 76.7001 423.751 77.9001C422.151 79.1001 420.584 80.7001 419.051 82.7001C417.584 84.7001 416.284 86.9334 415.151 89.4001C414.084 91.6667 413.217 93.8667 412.551 96.0001C411.951 98.0667 411.651 99.8667 411.651 101.4C411.651 102.733 411.917 103.8 412.451 104.6C412.984 105.4 413.817 105.8 414.951 105.8Z" fill="#92400E"/>
<defs>
<radialGradient id="paint0_radial_3_8" cx="0" cy="0" r="1" gradientUnits="userSpaceOnUse" gradientTransform="translate(234.226 82.3475) rotate(90) scale(43.7632 215.77)">
<stop offset="0.958333" stop-color="#92400E" stop-opacity="0"/>
<stop offset="1" stop-color="#78350F"/>
</radialGradient>
</defs>
</svg>
